<svg xmlns="http://www.w3.org/2000/svg" viewBox="0 0 64 64"><defs><style>.cls-1{fill:#e6e6e6;}.cls-2{fill:#ccc;}.cls-3{fill:#fff;}.cls-4{fill:#1a9158;}.cls-5{fill:#22b573;}</style></defs><title>05.Vaccine</title><g id="_05.Vaccine" data-name="05.Vaccine"><path class="cls-1" d="M60,11.9C59.5,38.6,43,60,32,60S4.5,38.6,4,11.9A9,9,0,0,0,11.9,4H52.1A9,9,0,0,0,60,11.9Z"/><path class="cls-2" d="M37.7,58.4A12.3,12.3,0,0,1,32,60C22,60,4.5,38.6,4,11.9A9,9,0,0,0,8.9,9.8C12.6,33.9,26.6,52.9,37.7,58.4Z"/><ellipse class="cls-3" cx="45.1" cy="9.4" rx="3.5" ry="1.6"/><ellipse class="cls-3" cx="47.4" cy="12.5" rx="1.8" ry="0.8"/><path class="cls-4" d="M41.5,24.6H22.5a1,1,0,0,1-1-1,10.6,10.6,0,0,1,14.3-9.9,1,1,0,1,1-.7,1.9,8.6,8.6,0,0,0-11.5,7h17a8.5,8.5,0,0,0-2.4-5,1,1,0,1,1,1.4-1.4,10.5,10.5,0,0,1,3.1,7.4A1,1,0,0,1,41.5,24.6Z"/><path class="cls-5" d="M19,22.5V37.1A5.9,5.9,0,0,0,25,43H39A5.9,5.9,0,0,0,45,37.1V22.5Z"/><path class="cls-4" d="M30.2,43H25A5.9,5.9,0,0,1,19,37.1V22.5h5.3V37.1A5.9,5.9,0,0,0,30.2,43Z"/><path class="cls-3" d="M32,40a1,1,0,0,1-1-1V32.1a1,1,0,0,1,2,0V39A1,1,0,0,1,32,40Z"/><circle class="cls-3" cx="32" cy="29.4" r="2.7"/></g></svg>